<svg xmlns="http://www.w3.org/2000/svg" viewBox="0 0 80 100"><path d="M40.99,58.759,23.05,46.384c-1.818-1.254-1.2-3.865,1.067-4.479L43.184,36.73A2.7,2.7,0,0,1,46.8,39.222L45.67,56.771C45.536,58.854,42.808,60.013,40.99,58.759Z" fill="#e9327c"/><path d="M35.3,61.814,24.731,41.145a2.883,2.883,0,0,1,3.007-4.161l19.587,3.023a2.883,2.883,0,0,1,2.127,4.162L40.429,61.815A2.883,2.883,0,0,1,35.3,61.814Z" fill="#1dace3"/><path d="M46.752,39.918l-9.764-1.507L25,41.666l4.785,9.361L40.99,58.759a2.888,2.888,0,0,0,.806.383l4.256-8.323Z" fill="#001a49"/></svg>
